Coordinates
version=1
nRows=24
nColumns=22
inDegrees=yes

Units are S.I. units (second, meters, Newtons, ...)
If the header above contains a line with 'inDegrees', this indicates whether rotational values are in degrees (yes) or radians (no).

endheader
time	pelvis_tilt	pelvis_list	pelvis_rotation	pelvis_tx	pelvis_ty	pelvis_tz	hip_flexion_r	hip_adduction_r	hip_rotation_r	knee_angle_r	ankle_angle_r	subtalar_angle_r	hip_flexion_l	hip_adduction_l	hip_rotation_l	knee_angle_l	ankle_angle_l	subtalar_angle_l	lumbar_extension	lumbar_bending	lumbar_rotation
      3.20000000	     -2.97537299	     -0.13634492	      3.39199414	     -0.87735152	      0.98394724	     -0.07658245	     28.07791909	     -2.43089421	    -10.41881914	    -14.20869224	      2.68087126	      8.92345276	     -9.56476599	      2.41544793	     -7.15392046	    -12.16996041	     17.43613936	      4.08369732	     -4.90069628	     -1.24281514	     -7.47870248
      3.21000000	     -2.93831308	     -0.39752472	      3.56563323	     -0.86702632	      0.98440318	     -0.07567682	     28.00604188	     -2.18743607	    -10.53821845	    -15.14476461	      1.78921698	      8.10690057	     -9.88532448	      1.93140526	     -6.77583390	    -12.75976284	     16.88779947	      4.76283133	     -4.81653204	     -0.91177700	     -7.50357741
      3.22000000	     -2.91131683	     -0.68273026	      3.71250161	     -0.85653712	      0.98510634	     -0.07462851	     27.92018382	     -1.89316259	    -10.59192152	    -16.04845399	      0.97970159	      7.33826145	    -10.15616851	      1.41592645	     -6.40616835	    -13.41352202	     16.21156767	      5.46589474	     -4.70526004	     -0.56466916	     -7.51234398
      3.23000000	     -2.89377179	     -0.98089452	      3.83249114	     -0.84588989	      0.98601595	     -0.07343619	     27.81250394	     -1.55474773	    -10.55857070	    -16.91640117	      0.30444831	      6.64267354	    -10.36870777	      0.88252018	     -6.04878583	    -14.14612890	     15.42262618	      6.17814774	     -4.56672269	     -0.21547229	     -7.50803950
      3.24000000	     -2.88683795	     -1.27829190	      3.91988044	     -0.83509468	      0.98709494	     -0.07212954	     27.67875721	     -1.18289313	    -10.42800051	    -17.74398665	     -0.22080010	      6.02661416	    -10.51955281	      0.35319229	     -5.70972621	    -14.96010578	     14.52273093	      6.87980996	     -4.39918757	      0.12512924	     -7.48827424
      3.25000000	     -2.88898190	     -1.56889895	      3.97843648	     -0.82417277	      0.98830895	     -0.07072372	     27.51058258	     -0.78560809	    -10.21908467	    -18.52119926	     -0.59702997	      5.47544357	    -10.59972041	     -0.16616249	     -5.40645892	    -15.87166195	     13.51406901	      7.54781230	     -4.20637130	      0.45247548	     -7.46848009
      3.26000000	     -2.89673080	     -1.84044708	      4.00825048	     -0.81313675	      0.98963055	     -0.06923606	     27.29834707	     -0.37589112	     -9.95254148	    -19.23810029	     -0.82091798	      4.93015676	    -10.61275625	     -0.66085970	     -5.15181209	    -16.87655858	     12.39273055	      8.18883528	     -3.99178856	      0.75332044	     -7.43493911
      3.27000000	     -2.90801805	     -2.09124137	      4.01460765	     -0.80200676	      0.99103070	     -0.06768432	     27.02970437	      0.04089547	     -9.65222744	    -19.87331092	     -0.92017427	      4.36325792	    -10.55065738	     -1.13078270	     -4.95327389	    -17.99093926	     11.16645715	      8.79919820	     -3.75895676	      1.02926147	     -7.41058449
      3.28000000	     -2.91791765	     -2.31634135	      4.01022381	     -0.79080608	      0.99248871	     -0.06608307	     26.69759476	      0.45216669	     -9.34596013	    -20.42233036	     -0.90160731	      3.75195293	    -10.41469182	     -1.57695195	     -4.82112800	    -19.21353837	      9.83797427	      9.38533842	     -3.51541494	      1.27357336	     -7.39317945
      3.29000000	     -2.92291328	     -2.51448969	      4.00210615	     -0.77955606	      0.99398115	     -0.06444748	     26.29623175	      0.85121151	     -9.05581099	    -20.87692040	     -0.77941127	      3.08489159	    -10.20163912	     -2.00298712	     -4.76834463	    -20.55156305	      8.41464060	      9.95753323	     -3.26661599	      1.48664275	     -7.39463288
      3.30000000	     -2.92327889	     -2.68696797	      3.99806806	     -0.76828809	      0.99548371	     -0.06276276	     25.82612175	      1.23598660	     -8.79095290	    -21.22978158	     -0.58537184	      2.36636392	     -9.90315395	     -2.41971490	     -4.80701821	    -22.01227311	      6.91057214	     10.51934701	     -3.01546457	      1.66376996	     -7.41400310
      3.31000000	     -2.92154219	     -2.83751511	      4.00100918	     -0.75703829	      0.99698011	     -0.06103545	     25.29132240	      1.60629223	     -8.56129126	    -21.47439753	     -0.34510226	      1.62505261	     -9.50891246	     -2.83657787	     -4.94405460	    -23.60448866	      5.33699901	     11.05995357	     -2.76335227	      1.80980621	     -7.44522971
      3.32000000	     -2.90730154	     -2.96726773	      4.02060346	     -0.74584680	      0.99845189	     -0.05927162	     24.70128170	      1.95320797	     -8.39771282	    -21.64569244	     -0.04263122	      0.84925829	     -9.02302722	     -3.26606119	     -5.18478948	    -25.33748452	      3.73409731	     11.58649228	     -2.52921827	      1.92589472	     -7.50208194
      3.33000000	     -2.88329719	     -3.08517789	      4.05434557	     -0.73475812	      0.99988922	     -0.05746901	     24.06435022	      2.28541164	     -8.28690736	    -21.74396798	      0.28662419	      0.10444076	     -8.43693535	     -3.72086118	     -5.51325980	    -27.22249188	      2.13976045	     12.06594527	     -2.31656314	      2.02156419	     -7.57023990
      3.34000000	     -2.84442020	     -3.18819812	      4.10472497	     -0.72380946	      1.00128288	     -0.05561685	     23.38922853	      2.59677060	     -8.24111424	    -21.79128355	      0.64803396	     -0.66937390	     -7.75256868	     -4.20573603	     -5.91524041	    -29.26832468	      0.60875374	     12.51953762	     -2.13870980	      2.09088022	     -7.64770829
      3.35000000	     -2.80811276	     -3.31161753	      4.16567771	     -0.71302260	      1.00261148	     -0.05371897	     22.68430667	      2.92587768	     -8.22963446	    -21.75475119	      0.98507630	     -1.25881939	     -6.94386892	     -4.76056596	     -6.38884968	    -31.49028414	     -0.79758132	     12.84582386	     -1.97496747	      2.17455006	     -7.72329200
      3.36000000	     -2.75663214	     -3.43704088	      4.23667507	     -0.70243857	      1.00387352	     -0.05181272	     21.96143169	      3.24924244	     -8.26380916	    -21.69350110	      1.34735678	     -1.82274222	     -6.03864258	     -5.35593103	     -6.86948395	    -33.86912769	     -2.04267265	     13.08996988	     -1.85601723	      2.25804522	     -7.77954375
      3.37000000	     -2.69110053	     -3.57668177	      4.30969655	     -0.69206742	      1.00506788	     -0.04987370	     21.22222181	      3.58648005	     -8.31697248	    -21.60440618	      1.71769106	     -2.28661982	     -5.04205497	     -5.99801113	     -7.32800976	    -36.38342425	     -3.09416258	     13.20207466	     -1.78355217	      2.35069625	     -7.80924316
      3.38000000	     -2.62596687	     -3.72277876	      4.38497110	     -0.68189966	      1.00617191	     -0.04795685	     20.47804158	      3.92436695	     -8.39740854	    -21.47697028	      2.09507361	     -2.71093944	     -3.95023081	     -6.67611155	     -7.77764632	    -38.99513559	     -3.91653085	     13.14867620	     -1.73401240	      2.45030172	     -7.82514226
      3.39000000	     -2.55134996	     -3.88737737	      4.45772752	     -0.67194785	      1.00719577	     -0.04607556	     19.73074292	      4.28111626	     -8.46827146	    -21.33573035	      2.47779899	     -3.05437017	     -2.78781811	     -7.37391813	     -8.13958304	    -41.65196277	     -4.50563521	     12.90603022	     -1.72295852	      2.57337770	     -7.78962912
      3.40000000	     -2.48141591	     -4.03602981	      4.52026739	     -0.66222412	      1.00812692	     -0.04422925	     19.00048290	      4.62285449	     -8.51410939	    -21.19293326	      2.86812006	     -3.39329116	     -1.55887989	     -8.03757932	     -8.40586646	    -44.29367442	     -4.85362837	     12.36361963	     -1.73772873	      2.67813544	     -7.71355270
      3.41000000	     -2.36863819	     -4.21905421	      4.57741807	     -0.65267212	      1.00904752	     -0.04244632	     18.22073339	      5.00506539	     -8.54348879	    -21.01585802	      3.24335000	     -3.57086868	     -0.33084862	     -8.71314900	     -8.56748929	    -46.86188995	     -4.86054407	     11.89754454	     -1.82034925	      2.82990442	     -7.57417397
      3.42000000	     -2.28400487	     -4.33658092	      4.62467711	     -0.64332328	      1.00988293	     -0.04073778	     17.47443228	      5.32115906	     -8.50845256	    -20.83720269	      3.63478431	     -3.82171172	      0.95362534	     -9.26758893	     -8.62835052	    -49.29501465	     -4.67184681	     11.03697863	     -1.89536743	      2.90445128	     -7.40855120
      3.43000000	     -2.15462970	     -4.46338929	      4.66265426	     -0.63413508	      1.01073539	     -0.03909569	     16.67810671	      5.65215969	     -8.46056356	    -20.63431038	      3.99924052	     -3.98486980	      2.20837178	     -9.78399856	     -8.59412917	    -51.56477143	     -4.14458465	     10.38828252	     -2.03814688	      2.99649843	     -7.18433312
